<?xml version="1.0" encoding="UTF-8"?>
<svg width="409.67" height="169.71" enable-background="new 0 0 409.667 169.709" viewBox="0 0 409.667 169.709" xmlns="http://www.w3.org/2000/svg">
 <path d="m330.05,25.903-1.518-.627-8.367-3.344c-14.113-5.604-23.592-8.676-39.313-11.025-13.687-2.047-21.204.282-26.694,1.979-.838.258-1.629.503-2.372.709-5.564,1.542-11.837,7.825-12.101,8.089l.735.734c.062-.065 6.345-6.358 11.64-7.825 .761-.207 1.562-.455 2.407-.719 5.39-1.67 12.776-3.955 26.228-1.945 15.622,2.335 25.178,5.18 39.21,10.75 4.116,1.632 6.643,2.556 9.666,3.812l.54.116c.805.299.422.638.615.139 .17-.482-.24-.659-.69-.843z"/>
 <path d="m263.97 11.284s15.438-5.099 31.008-4.118 78.333 8.615 93.244 13.689" fill="none" stroke="#000" stroke-width=".4503"/>
 <path d="m266.4 10.822s13.683-5.085 42.623-3.625c28.947 1.456 84.483 13.442 84.483 13.442" fill="none" stroke="#000" stroke-width=".4503"/>
 <path d="m276.68,8.145s27.227-.92 41.935.783c14.711,1.715 51.496,6.86 54.84,6.976s17.467,1.141 17.467,1.141" fill="none" stroke="#000" stroke-width=".4503"/>
 <path d="m385.77,17.566s-29.128-3.068-36.276-3.506c-7.155-.435-30.72-3.201-47.729-4.141s-32.487,2.715-32.487,2.715 36.173,12.444 55.335,20.112 56.211,24.974 64.839,26.813 14.96,4.443 14.96,4.443-52.679-19.406-65.99-26.429-32.576-13.42-50.336-18.732c-17.764-5.323-29.606-5.034-31.533-4.878" fill="none" stroke="#000" stroke-width=".4503"/>
 <path d="m258.35 15.398s21.608 3.241 33.794 6.497c12.186 3.248 42.991 14.927 54.82 20.548s31.255 13.944 38.74 16.167c7.475 2.223 14.439 4.874 14.439 4.874" fill="none" stroke="#000" stroke-width=".4503"/>
 <path d="m265.21,15.49s8.832,1.381 17.776,3.242c8.948,1.87 26.459,8.275 35.79,11.292 9.335,3.018 50.882,21.814 53.687,22.69 2.801.873 22.48,8.106 25.081,9.44s4.169,1.785 4.169,1.785" fill="none" stroke="#000" stroke-width=".4503"/>
 <path d="m383.81 15.147s-29.131-3.069-36.282-3.51-30.713-3.201-47.725-4.145-32.489 2.722-32.489 2.722 36.175 12.441 55.34 20.105c19.162 7.669 56.205 24.978 64.837 26.814s14.963 4.447 14.963 4.447-52.683-19.413-65.992-26.429c-13.306-7.025-32.579-13.423-50.338-18.738-17.764-5.316-29.606-5.03-31.534-4.868" fill="none" stroke="#000" stroke-width=".4503"/>
 <path d="m256.39 16.487s21.608 3.242 33.794 6.497 42.997 14.924 54.824 20.545c11.825 5.621 31.252 13.947 38.732 16.171s14.446 4.877 14.446 4.877" fill="none" stroke="#000" stroke-width=".4503"/>
 <path d="m263.25,14.821s8.831,1.382 17.775,3.242c8.948,1.867 26.457,8.279 35.791,11.293s50.882,21.814 53.683,22.687c2.803.879 22.48,8.106 25.084,9.443 2.604,1.333 4.166,1.779 4.166,1.779" fill="none" stroke="#000" stroke-width=".4503"/>
 <path d="m406.6 51.251s-15.291 1.44-47.538-10.193c-32.25-11.642-49.457-15.953-53.21-16.903s-44.789-11.266-44.789-11.266" fill="none" stroke="#000" stroke-width=".4503"/>
 <path d="m409.64 43.499s-30.491-3.988-58.669-14.645c-28.17-10.655-49.97-19.342-62.34-20.374-12.37-1.036-30.356 1.843-30.356 1.843" fill="none" stroke="#000" stroke-width=".4503"/>
 <path d="m407.73 43.335s-36.263-9.414-57.793-17.439-41.194-13.5-49.311-15.777c-8.116-2.271-23.591-2.447-23.591-2.447" fill="none" stroke="#000" stroke-width=".4503"/>
 <path d="m408.97 43.332s-30.488-3.988-58.669-14.645c-28.18-10.655-49.97-19.341-62.34-20.377-12.367-1.032-30.35 1.844-30.35 1.844" fill="none" stroke="#000" stroke-width=".4503"/>
 <path d="m407.06 43.169s-36.266-9.414-57.8-17.442c-21.526-8.024-41.194-13.5-49.307-15.773-8.113-2.278-23.592-2.448-23.592-2.448" fill="none" stroke="#000" stroke-width=".4503"/>
 <path d="m400.06 43.516s-24.738-9.727-44.816-16.038c-20.074-6.31-40.957-12.524-40.957-12.524s-8.14-1.956-20.604-3.795-25.468-2.923-25.468-2.923" fill="none" stroke="#000" stroke-width=".4503"/>
 <path d="m399.09 43.998s-24.742-9.733-44.816-16.043c-20.078-6.307-40.953-12.522-40.953-12.522s-8.146-1.955-20.607-3.795-25.471-2.922-25.471-2.922" fill="none" stroke="#000" stroke-width=".4503"/>
 <path d="m336.42,26.233s-2.434-2.464-3.96-2.21-2.947,1.446-2.947,1.446 1.154,1.979 3.344,1.69c2.2-.291 3.57-.926 3.57-.926z"/>
 <path d="m330.75,31.422s.038-3.461-1.215-4.365c-1.253-.913-3.105-1.076-3.105-1.076s-.592,2.209 1.153,3.564c1.74,1.355 3.16,1.877 3.16,1.877z"/>
 <path d="m326.04,29.142s.04-3.458-1.217-4.365c-1.251-.91-3.102-1.07-3.102-1.07s-.594,2.21 1.153,3.568c1.75,1.348 3.17,1.867 3.17,1.867z"/>
 <path d="m320.81,27.482s.037-3.456-1.215-4.365-3.104-1.073-3.104-1.073-.598,2.212 1.151,3.564c1.75,1.358 3.16,1.874 3.16,1.874z"/>
 <path d="m316.15,25.87s.034-3.458-1.215-4.372c-1.256-.903-3.108-1.069-3.108-1.069s-.591,2.217 1.153,3.567 3.17,1.874 3.17,1.874z"/>
 <path d="m311.29,24.244s.033-3.459-1.216-4.372-3.105-1.07-3.105-1.07-.594,2.209 1.157,3.564c1.75,1.352 3.17,1.878 3.17,1.878z"/>
 <path d="m305.78,22.648s.038-3.462-1.219-4.369c-1.252-.907-3.102-1.073-3.102-1.073s-.594,2.213 1.15,3.567 3.17,1.875 3.17,1.875z"/>
 <path d="m300.41,21.45s.033-3.459-1.219-4.372-3.103-1.069-3.103-1.069-.591,2.21 1.153,3.567c1.76,1.351 3.17,1.874 3.17,1.874z"/>
 <path d="m294.62,19.743s.037-3.462-1.216-4.372-3.109-1.07-3.109-1.07-.59,2.213 1.157,3.564c1.75,1.355 3.17,1.878 3.17,1.878z"/>
 <path d="m289.1,18.151s.04-3.459-1.213-4.365c-1.256-.914-3.105-1.076-3.105-1.076s-.594,2.213 1.153,3.564c1.76,1.354 3.17,1.877 3.17,1.877z"/>
 <path d="m283.88,17.526s.035-3.462-1.214-4.373c-1.257-.902-3.107-1.069-3.107-1.069s-.594,2.216 1.155,3.568 3.16,1.874 3.16,1.874z"/>
 <path d="m278.48,16.702s-.346-3.445-1.694-4.209c-1.344-.764-3.203-.723-3.203-.723s-.34,2.268 1.54,3.411c1.87,1.157 3.35,1.521 3.35,1.521z"/>
 <path d="m268.45,17.184s-.343-3.445-1.69-4.213c-1.352-.76-3.204-.719-3.204-.719s-.343,2.264 1.538,3.417c1.89,1.147 3.35,1.515 3.35,1.515z"/>
 <path d="m263.77,18.012s-.347-3.445-1.694-4.206c-1.344-.764-3.204-.723-3.204-.723s-.347,2.267 1.541,3.421c1.88,1.144 3.35,1.508 3.35,1.508z"/>
 <path d="m273.57,16.854s-.345-3.438-1.693-4.209c-1.347-.764-3.204-.716-3.204-.716s-.346,2.261 1.541,3.412c1.88,1.146 3.35,1.513 3.35,1.513z"/>
 <path d="m259.42,18.215s-.343-3.441-1.69-4.206c-1.341-.767-3.201-.723-3.201-.723s-.343,2.264 1.541,3.415 3.35,1.514 3.35,1.514z"/>
 <path d="m331.93 23.212s-2.805-2.03-4.271-1.534-2.672 1.917-2.672 1.917 1.468 1.762 3.578 1.117 3.36-1.5 3.36-1.5z"/>
 <path d="m327.1,21.209s-2.803-2.03-4.271-1.531-2.664,1.911-2.664,1.911 1.463,1.758 3.574,1.12c2.11-.648 3.36-1.5 3.36-1.5z"/>
 <path d="m322.09,19.183s-2.805-2.023-4.271-1.527c-1.463.496-2.664,1.914-2.664,1.914s1.463,1.769 3.574,1.124c2.11-.65 3.36-1.511 3.36-1.511z"/>
 <path d="m317.09,17.163s-2.808-2.026-4.273-1.527-2.668,1.915-2.668,1.915 1.466,1.765 3.577,1.12c2.1-.65 3.36-1.508 3.36-1.508z"/>
 <path d="m312.08 15.147s-2.807-2.027-4.274-1.531-2.668 1.918-2.668 1.918 1.467 1.758 3.578 1.113 3.36-1.5 3.36-1.5z"/>
 <path d="m306.67,13.459s-2.803-2.023-4.27-1.531c-1.466.503-2.669,1.918-2.669,1.918s1.464,1.765 3.575,1.117c2.12-.645 3.37-1.504 3.37-1.504z"/>
 <path d="m301.32,12.082s-2.805-2.034-4.271-1.538-2.668,1.915-2.668,1.915 1.466,1.761 3.578,1.12c2.11-.648 3.36-1.497 3.36-1.497z"/>
 <path d="m295.97,10.689s-2.804-2.033-4.267-1.531c-1.471.496-2.668,1.915-2.668,1.915s1.466,1.759 3.577,1.113c2.12-.644 3.36-1.497 3.36-1.497z"/>
 <path d="m290.41,9.658s-2.801-2.03-4.268-1.531-2.668,1.921-2.668,1.921 1.463,1.758 3.577,1.11c2.11-.641 3.36-1.5 3.36-1.5z"/>
 <path d="m284.43,8.517s-2.949-1.809-4.376-1.201-2.515,2.118-2.515,2.118 1.592,1.643 3.648.839c2.06-.805 3.24-1.756 3.24-1.756z"/>
 <path d="m278.14,7.224s-3.343-.875-4.531.123-1.792,2.752-1.792,2.752 2,1.106 3.737-.261c1.73-1.361 2.58-2.614 2.58-2.614z"/>
 <path d="m272.66,7.52s-3.351-.876-4.539.122c-1.18.994-1.789,2.753-1.789,2.753s2.004,1.11 3.737-.258 2.59-2.617 2.59-2.617z"/>
 <path d="m267.18,7.815s-3.354-.875-4.538.122c-1.186.995-1.793,2.75-1.793,2.75s2.006,1.117 3.737-.258c1.73-1.362 2.59-2.614 2.59-2.614z"/>
 <path d="m261.08,9.006s-3.37-.778-4.528.258c-1.149,1.029-1.707,2.804-1.707,2.804s2.036,1.049 3.73-.37c1.71-1.419 2.51-2.692 2.51-2.692z"/>
 <path d="m79.614,25.903 1.518-.627 8.367-3.344c14.114-5.604 23.591-8.676 39.314-11.025 13.686-2.047 21.206.282 26.694,1.979 .838.258 1.629.503 2.372.709 5.563,1.542 11.837,7.825 12.101,8.089l-.736.734c-.061-.065-6.344-6.358-11.64-7.825-.76-.207-1.561-.455-2.406-.719-5.39-1.67-12.777-3.955-26.229-1.945-15.621,2.335-25.176,5.18-39.209,10.75-4.117,1.632-6.643,2.556-9.667,3.812l-.54.116c-.805.299-.421.638-.615.139-.16-.482.254-.659.695-.843z"/>
 <path d="m145.7 11.284s-15.438-5.099-31.008-4.118-78.333 8.615-93.244 13.689" fill="none" stroke="#000" stroke-width=".4503"/>
 <path d="m143.27 10.822s-13.683-5.085-42.624-3.625c-28.952 1.456-84.487 13.442-84.487 13.442" fill="none" stroke="#000" stroke-width=".4503"/>
 <path d="m132.98,8.145s-27.227-.92-41.935.783c-14.711,1.715-51.496,6.86-54.84,6.976s-17.468,1.141-17.468,1.141" fill="none" stroke="#000" stroke-width=".4503"/>
 <path d="m23.895,17.566s29.127-3.068 36.276-3.506c7.156-.435 30.719-3.201 47.729-4.141s32.488,2.715 32.488,2.715-36.174,12.444-55.335,20.112-56.212,24.974-64.84,26.813-14.959,4.443-14.959,4.443 52.678-19.406 65.99-26.429 32.577-13.42 50.336-18.732c17.763-5.323 29.606-5.034 31.535-4.878" fill="none" stroke="#000" stroke-width=".4503"/>
 <path d="m151.32 15.398s-21.609 3.241-33.794 6.497c-12.186 3.248-42.99 14.927-54.82 20.548s-31.255 13.944-38.74 16.167c-7.475 2.223-14.44 4.874-14.44 4.874" fill="none" stroke="#000" stroke-width=".4503"/>
 <path d="m144.46,15.49s-8.832,1.381-17.777,3.242c-8.947,1.87-26.459,8.275-35.79,11.292-9.335,3.018-50.882,21.814-53.686,22.69-2.801.873-22.481,8.106-25.082,9.44s-4.168,1.785-4.168,1.785" fill="none" stroke="#000" stroke-width=".4503"/>
 <path d="m25.854 15.147s29.13-3.069 36.282-3.51 30.713-3.201 47.726-4.145 32.487 2.722 32.487 2.722-36.17 12.441-55.339 20.106c-19.161 7.669-56.205 24.977-64.837 26.814s-14.962 4.447-14.962 4.447 52.681-19.413 65.99-26.429c13.306-7.025 32.579-13.423 50.339-18.738 17.763-5.316 29.605-5.03 31.534-4.868" fill="none" stroke="#000" stroke-width=".4503"/>
 <path d="m153.28 16.487s-21.608 3.242-33.794 6.497-42.997 14.924-54.823 20.545-31.258 13.947-38.738 16.171-14.447 4.877-14.447 4.877" fill="none" stroke="#000" stroke-width=".4503"/>
 <path d="m146.42,14.821s-8.833,1.382-17.777,3.242c-8.947,1.867-26.456,8.279-35.79,11.293s-50.88,21.814-53.68,22.686c-2.804.879-22.481,8.106-25.084,9.443-2.604,1.333-4.165,1.779-4.165,1.779" fill="none" stroke="#000" stroke-width=".4503"/>
 <path d="m3.07 51.251s15.292 1.44 47.539-10.193c32.25-11.642 49.457-15.953 53.211-16.903s44.789-11.266 44.789-11.266" fill="none" stroke="#000" stroke-width=".4503"/>
 <path d="m.029,43.499s30.492-3.988 58.668-14.645c28.174-10.655 49.973-19.342 62.343-20.374 12.37-1.036 30.356,1.843 30.356,1.843" fill="none" stroke="#000" stroke-width=".4503"/>
 <path d="m1.933 43.335s36.263-9.414 57.793-17.439 41.194-13.5 49.311-15.777c8.116-2.271 23.591-2.447 23.591-2.447" fill="none" stroke="#000" stroke-width=".4503"/>
 <path d="m.701,43.332s30.489-3.988 58.669-14.645c28.177-10.655 49.97-19.341 62.34-20.377 12.365-1.032 30.349,1.844 30.349,1.844" fill="none" stroke="#000" stroke-width=".4503"/>
 <path d="m2.602 43.169s36.266-9.414 57.8-17.442c21.527-8.024 41.195-13.5 49.308-15.773 8.112-2.278 23.591-2.448 23.591-2.448" fill="none" stroke="#000" stroke-width=".4503"/>
 <path d="m9.611 43.516s24.738-9.727 44.816-16.038c20.075-6.31 40.957-12.524 40.957-12.524s8.14-1.956 20.604-3.795 25.468-2.923 25.468-2.923" fill="none" stroke="#000" stroke-width=".4503"/>
 <path d="m10.579 43.998s24.742-9.733 44.816-16.043c20.078-6.307 40.954-12.522 40.954-12.522s8.146-1.955 20.607-3.795 25.472-2.922 25.472-2.922" fill="none" stroke="#000" stroke-width=".4503"/>
 <path d="m73.246,26.233s2.434-2.464 3.961-2.21 2.946,1.446 2.946,1.446-1.153,1.979-3.343,1.69-3.564-.926-3.564-.926z"/>
 <path d="m78.918,31.422s-.038-3.461 1.215-4.365c1.252-.913 3.105-1.076 3.105-1.076s.591,2.209-1.154,3.564c-1.747,1.355-3.166,1.877-3.166,1.877z"/>
 <path d="m83.626,29.142s-.041-3.458 1.215-4.365c1.253-.91 3.103-1.07 3.103-1.07s.594,2.21-1.154,3.568c-1.745,1.348-3.164,1.867-3.164,1.867z"/>
 <path d="m88.854,27.482s-.038-3.456 1.215-4.365 3.102-1.073 3.102-1.073 .598,2.212-1.151,3.564c-1.75,1.358-3.166,1.874-3.166,1.874z"/>
 <path d="m93.518,25.87s-.034-3.458 1.215-4.372c1.256-.903 3.109-1.069 3.109-1.069s.591,2.217-1.154,3.567c-1.745,1.347-3.17,1.874-3.17,1.874z"/>
 <path d="m98.375,24.244s-.035-3.459 1.215-4.372 3.106-1.07 3.106-1.07 .594,2.209-1.157,3.564c-1.743,1.352-3.165,1.878-3.165,1.878z"/>
 <path d="m103.89,22.648s-.037-3.462 1.219-4.369c1.252-.907 3.103-1.073 3.103-1.073s.594,2.213-1.151,3.567-3.17,1.875-3.17,1.875z"/>
 <path d="m109.25,21.45s-.034-3.459 1.218-4.372 3.103-1.069 3.103-1.069 .591,2.21-1.154,3.567c-1.75,1.351-3.17,1.874-3.17,1.874z"/>
 <path d="m115.04,19.743s-.038-3.462 1.215-4.372 3.109-1.07 3.109-1.07 .591,2.213-1.157,3.564c-1.75,1.355-3.17,1.878-3.17,1.878z"/>
 <path d="m120.56,18.151s-.041-3.459 1.211-4.365c1.256-.914 3.106-1.076 3.106-1.076s.594,2.213-1.154,3.564-3.17,1.877-3.17,1.877z"/>
 <path d="m125.78,17.526s-.035-3.462 1.215-4.373c1.256-.902 3.106-1.069 3.106-1.069s.594,2.216-1.154,3.568c-1.76,1.348-3.18,1.874-3.18,1.874z"/>
 <path d="m131.19,16.702s.346-3.445 1.693-4.209c1.344-.764 3.205-.723 3.205-.723s.339,2.268-1.541,3.411c-1.88,1.157-3.35,1.521-3.35,1.521z"/>
 <path d="m141.22,17.184s.343-3.445 1.69-4.213c1.351-.76 3.204-.719 3.204-.719s.343,2.264-1.537,3.417c-1.89,1.147-3.35,1.515-3.35,1.515z"/>
 <path d="m145.9,18.012s.346-3.445 1.693-4.206 3.204-.723 3.204-.723 .347,2.267-1.541,3.421c-1.88,1.144-3.35,1.508-3.35,1.508z"/>
 <path d="m136.1,16.854s.347-3.438 1.694-4.209c1.347-.764 3.204-.716 3.204-.716s.346,2.261-1.541,3.412c-1.88,1.146-3.35,1.513-3.35,1.513z"/>
 <path d="m150.25,18.215s.343-3.441 1.69-4.206c1.341-.767 3.201-.723 3.201-.723s.343,2.264-1.541,3.415-3.35,1.514-3.35,1.514z"/>
 <path d="m77.737 23.212s2.804-2.03 4.27-1.534 2.671 1.917 2.671 1.917-1.466 1.762-3.578 1.117-3.363-1.5-3.363-1.5z"/>
 <path d="m82.564,21.209s2.804-2.03 4.27-1.531 2.665,1.911 2.665,1.911-1.463,1.758-3.574,1.12c-2.112-.648-3.361-1.5-3.361-1.5z"/>
 <path d="m87.574,19.183s2.804-2.023 4.27-1.527c1.463.496 2.665,1.914 2.665,1.914s-1.463,1.769-3.575,1.124c-2.111-.65-3.36-1.511-3.36-1.511z"/>
 <path d="m92.581,17.163s2.808-2.026 4.274-1.527c1.459.495 2.667,1.915 2.667,1.915s-1.466,1.765-3.577,1.12c-2.112-.65-3.364-1.508-3.364-1.508z"/>
 <path d="m97.591 15.147s2.808-2.027 4.274-1.531 2.667 1.918 2.667 1.918-1.466 1.758-3.577 1.113-3.359-1.5-3.359-1.5z"/>
 <path d="m103,13.459s2.804-2.023 4.271-1.531c1.466.503 2.668,1.918 2.668,1.918s-1.463,1.765-3.575,1.117-3.36-1.504-3.36-1.504z"/>
 <path d="m108.35,12.082s2.804-2.034 4.271-1.538 2.667,1.915 2.667,1.915-1.466,1.761-3.577,1.12c-2.12-.648-3.36-1.497-3.36-1.497z"/>
 <path d="m113.69,10.689s2.804-2.033 4.267-1.531c1.469.496 2.667,1.915 2.667,1.915s-1.466,1.759-3.577,1.113c-2.11-.644-3.36-1.497-3.36-1.497z"/>
 <path d="m119.26,9.658s2.8-2.03 4.267-1.531 2.668,1.921 2.668,1.921-1.463,1.758-3.578,1.11c-2.11-.641-3.36-1.5-3.36-1.5z"/>
 <path d="m125.24,8.517s2.95-1.809 4.375-1.201c1.426.614 2.515,2.118 2.515,2.118s-1.592,1.643-3.648.839c-2.07-.805-3.25-1.756-3.25-1.756z"/>
 <path d="m131.52,7.224s3.344-.875 4.531.123 1.792,2.752 1.792,2.752-1.999,1.106-3.737-.261c-1.73-1.361-2.58-2.614-2.58-2.614z"/>
 <path d="m137.01,7.52s3.351-.876 4.539.122c1.181.994 1.789,2.753 1.789,2.753s-2.003,1.11-3.738-.258c-1.74-1.365-2.59-2.617-2.59-2.617z"/>
 <path d="m142.49,7.815s3.354-.875 4.539.122c1.185.995 1.792,2.75 1.792,2.75s-2.006,1.117-3.737-.258c-1.74-1.362-2.59-2.614-2.59-2.614z"/>
 <path d="m148.58,9.006s3.371-.778 4.528.258c1.15,1.029 1.707,2.804 1.707,2.804s-2.036,1.049-3.73-.37c-1.7-1.419-2.51-2.692-2.51-2.692z"/>
 <path d="m80.875,61.049 1.256-1.057 6.962-5.721c11.751-9.618 19.854-15.416 34.125-22.418 12.423-6.097 20.293-6.156 26.039-6.202 .876-.008 1.706-.013 2.476-.042 5.769-.217 13.65,3.872 13.983,4.043l-.48.921c-.078-.043-7.972-4.136-13.463-3.929-.787.032-1.626.039-2.511.042-5.644.042-13.374.102-25.585,6.093-14.181,6.958-22.424,12.564-34.109,22.123-3.43,2.804-5.557,4.449-8.058,6.562l-.481.275c-.675.528-.207.735-.543.317-.32-.405.021-.698.386-1.007z"/>
 <path d="m139.43,27.095s-16.257-.182-30.799,5.47-72.041,31.943-84.714,41.296" fill="none" stroke="#000" stroke-width=".4503"/>
 <path d="m136.97,27.392s-14.581-.701-41.719,9.458c-27.146,10.158-76.44,38.406-76.44,38.406" fill="none" stroke="#000" stroke-width=".4503"/>
 <path d="m126.36 27.955s-26.225 7.373-39.727 13.453c-13.5 6.09-46.997 22.138-50.148 23.262-3.146 1.128-16.302 6.38-16.302 6.38" fill="none" stroke="#000" stroke-width=".4503"/>
 <path d="m25.25 69.985s26.83-11.749 33.509-14.332c6.688-2.581 28.306-12.357 44.231-18.406s31.783-7.255 31.783-7.255-30.705 22.818-46.643 35.931c-15.94 13.116-46.002 40.831-53.669 45.2-7.667 4.362-12.909 8.764-12.909 8.764s44.322-34.452 54.882-45.178c10.553-10.723 26.978-22.658 42.294-33.101 15.315-10.455 26.69-13.768 28.574-14.203" fill="none" stroke="#000" stroke-width=".4503"/>
 <path d="m146.02 29.313s-19.611 9.636-30.237 16.43-36.448 27.25-46.019 36.191-25.561 22.758-32.021 27.144c-6.449 4.382-12.284 9.019-12.284 9.019" fill="none" stroke="#000" stroke-width=".4503"/>
 <path d="m139.52 31.479s-8 3.992-15.961 8.474c-7.959 4.494-22.708 15.903-30.685 21.607s-41.882 36.202-44.289 37.889c-2.405 1.677-18.97 14.534-21.043 16.592-2.078 2.057-3.432 2.967-3.432 2.967" fill="none" stroke="#000" stroke-width=".4503"/>
 <path d="m26.383 67.086s26.831-11.75 33.515-14.338c6.68-2.583 28.299-12.355 44.226-18.408 15.921-6.048 31.785-7.249 31.785-7.249s-30.704 22.816-46.646 35.927-45.996 40.831-53.666 45.196c-7.669 4.369-12.912 8.771-12.912 8.771s44.324-34.461 54.882-45.179c10.552-10.727 26.98-22.663 42.296-33.109s26.69-13.764 28.578-14.194" fill="none" stroke="#000" stroke-width=".4503"/>
 <path d="m148.23 29.758s-19.611 9.637-30.239 16.431-36.454 27.249-46.021 36.188-25.558 22.761-32.014 27.147c-6.458 4.383-12.289 9.022-12.289 9.022" fill="none" stroke="#000" stroke-width=".4503"/>
 <path d="m141.18 30.248s-7.999 3.992-15.958 8.475c-7.962 4.491-22.705 15.906-30.688 21.605s-41.882 36.206-44.287 37.886c-2.405 1.687-18.968 14.534-21.043 16.599-2.078 2.06-3.432 2.956-3.432 2.956" fill="none" stroke="#000" stroke-width=".4503"/>
 <path d="m15.609 108.4s15.009-3.262 42.216-24.118 42.299-30.185 45.588-32.228 39.272-24.308 39.272-24.308" fill="none" stroke="#000" stroke-width=".4503"/>
 <path d="m10.362 101.93s27.851-13.037 51.475-31.73 41.761-33.57 53.236-38.302c11.475-4.733 29.489-7.438 29.489-7.438" fill="none" stroke="#000" stroke-width=".4503"/>
 <path d="m12.126 101.2s31.706-19.958 49.794-34.13c18.083-14.171 35.167-25.344 42.213-29.974 7.047-4.623 21.741-9.479 21.741-9.479" fill="none" stroke="#000" stroke-width=".4503"/>
 <path d="m10.952 101.57s27.846-13.038 51.475-31.731 41.761-33.571 53.237-38.306c11.472-4.73 29.483-7.438 29.483-7.438" fill="none" stroke="#000" stroke-width=".4503"/>
 <path d="m12.714 100.83s31.709-19.958 49.8-34.131c18.083-14.17 35.167-25.346 42.21-29.971s21.741-9.48 21.741-9.48" fill="none" stroke="#000" stroke-width=".4503"/>
 <path d="m19.5 99.042s20.628-16.764 37.851-28.86 35.237-24.346 35.237-24.346 7.165-4.329 18.486-9.859 23.386-10.5 23.386-10.5" fill="none" stroke="#000" stroke-width=".4503"/>
 <path d="m20.567 99.208s20.629-16.772 37.849-28.867c17.224-12.094 35.235-24.341 35.235-24.341s7.171-4.332 18.49-9.861 23.387-10.502 23.387-10.502" fill="none" stroke="#000" stroke-width=".4503"/>
 <path d="m74.906,63.293s1.573-3.086 3.106-3.306c1.531-.231 3.247.485 3.247.485s-.501,2.235-2.675,2.624-3.678.197-3.678.197z"/>
 <path d="m81.885,66.521s-1.084-3.29-.164-4.53c.916-1.249 2.634-1.965 2.634-1.965s1.231,1.926-.021,3.746c-1.256,1.821-2.449,2.749-2.449,2.749z"/>
 <path d="m85.68,62.919s-1.086-3.284-.164-4.528c.918-1.246 2.634-1.958 2.634-1.958s1.236,1.926-.021,3.749c-1.254,1.812-2.449,2.737-2.449,2.737z"/>
 <path d="m90.159,59.754s-1.083-3.282-.165-4.528 2.632-1.962 2.632-1.962 1.239,1.928-.017,3.746-2.45,2.744-2.45,2.744z"/>
 <path d="m94.115,56.805s-1.08-3.286-.167-4.535c.923-1.241 2.639-1.96 2.639-1.96s1.236,1.933-.019,3.749c-1.253,1.812-2.453,2.746-2.453,2.746z"/>
 <path d="m98.251,53.784s-1.08-3.286-.166-4.535c.921-1.251 2.637-1.96 2.637-1.96s1.235,1.926-.024,3.747c-1.253,1.816-2.449,2.748-2.449,2.748z"/>
 <path d="m103.02,50.593s-1.085-3.289-.163-4.533 2.632-1.962 2.632-1.962 1.237,1.93-.016,3.749c-1.25,1.815-2.45,2.746-2.45,2.746z"/>
 <path d="m107.77,47.826s-1.081-3.288-.165-4.537c.919-1.242 2.634-1.958 2.634-1.958s1.232,1.926-.021,3.749c-1.24,1.818-2.44,2.746-2.44,2.746z"/>
 <path d="m112.77,44.444s-1.085-3.287-.167-4.535 2.639-1.96 2.639-1.96 1.234,1.929-.022,3.747c-1.25,1.82-2.45,2.748-2.45,2.748z"/>
 <path d="m117.55,41.254s-1.086-3.284-.167-4.528c.92-1.249 2.634-1.965 2.634-1.965s1.235,1.93-.021,3.746c-1.25,1.821-2.44,2.747-2.44,2.747z"/>
 <path d="m122.33,39.079s-1.082-3.289-.167-4.535c.923-1.24 2.638-1.96 2.638-1.96s1.237,1.934-.02,3.75c-1.25,1.813-2.45,2.745-2.45,2.745z"/>
 <path d="m127.24,36.654s-.713-3.39.339-4.525 2.834-1.66 2.834-1.66 1.012,2.059-.434,3.718c-1.45,1.676-2.74,2.467-2.74,2.467z"/>
 <path d="m136.94,34.076s-.718-3.388.334-4.527c1.057-1.133 2.836-1.656 2.836-1.656s1.011,2.054-.429,3.724c-1.45,1.666-2.74,2.459-2.74,2.459z"/>
 <path d="m141.65,33.447s-.713-3.389.34-4.521c1.05-1.135 2.835-1.66 2.835-1.66s1.017,2.055-.432,3.727c-1.45,1.662-2.74,2.454-2.74,2.454z"/>
 <path d="m131.97,35.311s-.713-3.381.337-4.523 2.838-1.653 2.838-1.653 1.015,2.048-.435,3.716c-1.46,1.666-2.75,2.46-2.75,2.46z"/>
 <path d="m145.86,32.323s-.716-3.385.336-4.522c1.045-1.137 2.833-1.658 2.833-1.658s1.011,2.053-.435,3.722-2.74,2.458-2.74,2.458z"/>
 <path d="m78.272,59.054s2.057-2.786 3.605-2.757 3.125,1.019 3.125,1.019-.863,2.123-3.072,2.148-3.658-.41-3.658-.41z"/>
 <path d="m82.265,55.683s2.057-2.786 3.605-2.753 3.118,1.013 3.118,1.013-.86,2.12-3.067,2.15c-2.208.022-3.656-.41-3.656-.41z"/>
 <path d="m86.425,52.232s2.059-2.776 3.607-2.749c1.544.031 3.12,1.018 3.12,1.018s-.859,2.128-3.066,2.154c-2.208.022-3.661-.423-3.661-.423z"/>
 <path d="m90.584,48.792s2.062-2.781 3.61-2.751c1.541.031 3.123,1.017 3.123,1.017s-.862,2.126-3.07,2.15-3.663-.416-3.663-.416z"/>
 <path d="m94.748,45.352s2.062-2.782 3.61-2.753 3.123,1.018 3.123,1.018-.864,2.12-3.072,2.146-3.66-.411-3.66-.411z"/>
 <path d="m99.39,42.107s2.061-2.779 3.607-2.753 3.123,1.018 3.123,1.018-.859,2.126-3.067,2.147c-2.21.027-3.66-.412-3.66-.412z"/>
 <path d="m104.07,39.172s2.057-2.787 3.605-2.76 3.121,1.017 3.121,1.017-.862,2.123-3.068,2.15c-2.21.024-3.66-.407-3.66-.407z"/>
 <path d="m108.74,36.226s2.055-2.787 3.601-2.751c1.552.027 3.124,1.014 3.124,1.014s-.864,2.121-3.073,2.146c-2.2.026-3.65-.409-3.65-.409z"/>
 <path d="m113.74,33.556s2.054-2.781 3.602-2.751 3.125,1.023 3.125,1.023-.861,2.118-3.074,2.142c-2.21.028-3.65-.414-3.65-.414z"/>
 <path d="m119.08,30.659s2.263-2.619 3.806-2.471 3.038,1.257 3.038,1.257-1.018,2.047-3.223,1.904-3.63-.69-3.63-.69z"/>
 <path d="m124.69,27.521s2.922-1.848 4.356-1.256 2.541,2.081 2.541,2.081-1.57,1.66-3.641.882c-2.07-.77-3.26-1.707-3.26-1.707z"/>
 <path d="m130,26.141s2.927-1.85 4.364-1.258c1.425.589 2.537,2.081 2.537,2.081s-1.572,1.665-3.64.886c-2.06-.773-3.26-1.709-3.26-1.709z"/>
 <path d="m135.32,24.762s2.931-1.853 4.362-1.26 2.543,2.078 2.543,2.078-1.576,1.671-3.641.887c-2.07-.771-3.26-1.705-3.26-1.705z"/>
 <path d="m141.48,24.052s2.977-1.761 4.394-1.127c1.408.632 2.476,2.156 2.476,2.156s-1.623,1.616-3.667.777-3.2-1.806-3.2-1.806z"/>
 <path d="m99.953,93.791 .81-1.426 4.538-7.786c7.673-13.106 13.253-21.359 24.197-32.889 9.528-10.036 16.887-12.829 22.258-14.869 .819-.314 1.593-.606 2.306-.901 5.333-2.21 14.145-1.119 14.516-1.073l-.129,1.03c-.088-.012-8.914-1.105-13.988.998-.729.304-1.511.603-2.34.913-5.276,2.003-12.503,4.747-21.869,14.611-10.876,11.456-16.655,19.579-24.286,32.604-2.242,3.823-3.662,6.104-5.273,8.955l-.354.425c-.45.729.061.76-.399.485-.449-.266-.232-.66.002-1.077z"/>
 <path d="m143.04 41.594s-15.306 5.484-26.974 15.84-56.433 55.005-65.062 68.183" fill="none" stroke="#000" stroke-width=".4503"/>
 <path d="m140.84 42.727s-13.915 4.414-35.824 23.377c-21.92 18.966-58.312 62.596-58.312 62.596" fill="none" stroke="#000" stroke-width=".4503"/>
 <path d="m131.09 46.947s-22.025 16.034-32.569 26.429-36.366 37.104-38.931 39.254-13.064 11.649-13.064 11.649" fill="none" stroke="#000" stroke-width=".4503"/>
 <path d="m50.908 121.52s21.069-20.346 26.434-25.091 22.242-21.43 35.067-32.64c12.828-11.212 27.276-17.856 27.276-17.856s-20.851 32.074-31.233 49.909-28.929 54.282-34.6 61.045c-5.668 6.754-9.053 12.708-9.053 12.708s29.572-47.719 35.742-61.448c6.166-13.724 17.415-30.625 28.143-45.744 10.723-15.129 20.236-22.191 21.85-23.253" fill="none" stroke="#000" stroke-width=".4503"/>
 <path d="m150 41.379s-15.035 15.855-22.635 25.921c-7.605 10.061-24.694 38.226-30.557 49.937-5.867 11.71-16.052 30.227-20.582 36.588-4.523 6.351-8.381 12.729-8.381 12.729" fill="none" stroke="#000" stroke-width=".4503"/>
 <path d="m144.65 45.673s-6.11 6.524-12.016 13.494c-5.9 6.982-15.761 22.809-21.254 30.931-5.501 8.123-26.677 48.51-28.347 50.927-1.671 2.41-12.73 20.224-13.959 22.877s-2.187 3.973-2.187 3.973" fill="none" stroke="#000" stroke-width=".4503"/>
 <path d="m50.964 118.4s21.069-20.346 26.436-25.099 22.235-21.426 35.062-32.639c12.824-11.208 27.279-17.851 27.279-17.851s-20.852 32.07-31.238 49.907c-10.38 17.837-28.924 54.279-34.596 61.038s-9.056 12.716-9.056 12.716 29.572-47.726 35.743-61.446c6.162-13.727 17.415-30.633 28.141-45.753s20.235-22.188 21.856-23.247" fill="none" stroke="#000" stroke-width=".4503"/>
 <path d="m152.22 41.03s-15.034 15.856-22.636 25.922c-7.604 10.062-24.703 38.227-30.563 49.934s-16.045 30.23-20.573 36.585-8.384 12.736-8.384 12.736" fill="none" stroke="#000" stroke-width=".4503"/>
 <path d="m145.78 43.94s-6.112 6.524-12.015 13.496c-5.903 6.979-15.756 22.809-21.257 30.927s-26.676 48.512-28.347 50.922c-1.667 2.421-12.728 20.228-13.956 22.883s-2.189 3.965-2.189 3.965" fill="none" stroke="#000" stroke-width=".4503"/>
 <path d="m55.229 160.88s12.938-8.276 31.193-37.294c18.253-29.022 29.161-43.01 31.534-46.069s28.366-36.45 28.366-36.45" fill="none" stroke="#000" stroke-width=".4503"/>
 <path d="m48.06 156.64s21.578-21.911 37.225-47.653 27.479-45.999 36.592-54.427 25.061-17.23 25.061-17.23" fill="none" stroke="#000" stroke-width=".4503"/>
 <path d="m49.46 155.34s22.785-29.739 34.816-49.317c12.024-19.576 24.156-35.993 29.153-42.785 4.998-6.784 17.086-16.448 17.086-16.448" fill="none" stroke="#000" stroke-width=".4503"/>
 <path d="m48.487 156.1s21.573-21.907 37.225-47.65 27.479-46 36.591-54.433c9.111-8.424 25.054-17.228 25.054-17.228" fill="none" stroke="#000" stroke-width=".4503"/>
 <path d="m49.885 154.8s22.788-29.742 34.82-49.324c12.026-19.572 24.156-35.993 29.152-42.778 4.99-6.789 17.085-16.452 17.085-16.452" fill="none" stroke="#000" stroke-width=".4503"/>
 <path d="m55.623 150.76s13.509-22.893 25.451-40.225 24.57-35.08 24.57-35.08 5.21-6.551 13.901-15.674 18.274-17.978 18.274-17.978" fill="none" stroke="#000" stroke-width=".4503"/>
 <path d="m56.682 150.54s13.508-22.898 25.448-40.228 24.568-35.075 24.568-35.075 5.217-6.555 13.907-15.676 18.274-17.982 18.274-17.982" fill="none" stroke="#000" stroke-width=".4503"/>
 <path d="m95.137,97.973s.402-3.441 1.763-4.182c1.354-.747 3.212-.673 3.212-.673s.308,2.268-1.595,3.392-3.378,1.463-3.378,1.463z"/>
 <path d="m102.8,98.57s-2.161-2.705-1.729-4.188c.424-1.49 1.785-2.76 1.785-2.76s1.827,1.378 1.285,3.52c-.54,2.145-1.34,3.428-1.34,3.428z"/>
 <path d="m105.11,93.876s-2.161-2.702-1.73-4.188 1.79-2.753 1.79-2.753 1.827,1.377 1.284,3.523c-.54,2.135-1.34,3.418-1.34,3.418z"/>
 <path d="m108.21,89.351s-2.157-2.702-1.729-4.189 1.787-2.755 1.787-2.755 1.832,1.377 1.287,3.517c-.55,2.147-1.35,3.427-1.35,3.427z"/>
 <path d="m110.89,85.207s-2.154-2.704-1.732-4.193c.434-1.484 1.792-2.755 1.792-2.755s1.832,1.381 1.287,3.522c-.55,2.135-1.35,3.426-1.35,3.426z"/>
 <path d="m113.72,80.937s-2.156-2.706-1.733-4.193c.429-1.494 1.791-2.755 1.791-2.755s1.83,1.375 1.282,3.521c-.54,2.137-1.34,3.427-1.34,3.427z"/>
 <path d="m117.08,76.285s-2.162-2.707-1.729-4.193 1.786-2.754 1.786-2.754 1.831,1.378 1.29,3.52c-.55,2.139-1.35,3.427-1.35,3.427z"/>
 <path d="m120.58,72.04s-2.158-2.707-1.733-4.197c.431-1.485 1.789-2.751 1.789-2.751s1.827,1.376 1.285,3.522c-.55,2.139-1.34,3.426-1.34,3.426z"/>
 <path d="m124.09 67.128s-2.161-2.704-1.733-4.194 1.792-2.754 1.792-2.754 1.828 1.38 1.283 3.52-1.34 3.428-1.34 3.428z"/>
 <path d="m127.46,62.478s-2.161-2.702-1.731-4.188 1.786-2.758 1.786-2.758 1.83,1.379 1.285,3.518c-.55,2.145-1.34,3.428-1.34,3.428z"/>
 <path d="m131.18,58.775s-2.157-2.708-1.732-4.193c.434-1.485 1.79-2.757 1.79-2.757s1.833,1.383 1.285,3.522c-.54,2.138-1.34,3.428-1.34,3.428z"/>
 <path d="m134.94,54.793s-1.847-2.929-1.254-4.36 2.079-2.541 2.079-2.541 1.666,1.579.886,3.638c-.78,2.074-1.72,3.263-1.72,3.263z"/>
 <path d="m143.14,49.004s-1.85-2.928-1.259-4.36c.596-1.431 2.082-2.541 2.082-2.541s1.662,1.576.893,3.641c-.78,2.068-1.71,3.26-1.71,3.26z"/>
 <path d="m147.34,46.775s-1.846-2.929-1.254-4.356 2.083-2.542 2.083-2.542 1.668,1.573.892,3.644c-.79,2.063-1.72,3.254-1.72,3.254z"/>
 <path d="m138.9,51.893s-1.845-2.922-1.257-4.359c.592-1.432 2.086-2.538 2.086-2.538s1.665,1.569.886,3.636-1.72,3.261-1.72,3.261z"/>
 <path d="m150.9,44.255s-1.848-2.922-1.258-4.355c.584-1.431 2.079-2.541 2.079-2.541s1.663,1.575.888,3.642c-.79,2.068-1.71,3.254-1.71,3.254z"/>
 <path d="m96.819,92.827s.959-3.327 2.422-3.839 3.284-.133 3.284-.133-.071,2.291-2.133,3.082-3.571.89-3.571.89z"/>
 <path d="m99.39,88.278s.961-3.327 2.424-3.835 3.275-.136 3.275-.136-.069,2.287-2.128,3.085c-2.05.788-3.56.886-3.56.886z"/>
 <path d="m102.09,83.597s.966-3.32 2.425-3.832 3.279-.131 3.279-.131-.064,2.295-2.125,3.086c-2.07.787-3.59.877-3.59.877z"/>
 <path d="m104.79,78.924s.965-3.327 2.429-3.835c1.454-.507 3.281-.132 3.281-.132s-.068,2.293-2.13,3.083-3.58.884-3.58.884z"/>
 <path d="m107.5,74.25s.966-3.326 2.427-3.836c1.465-.508 3.283-.132 3.283-.132s-.073,2.287-2.133,3.08c-2.07.793-3.58.888-3.58.888z"/>
 <path d="m110.72,69.593s.966-3.321 2.425-3.835c1.465-.506 3.281-.131 3.281-.131s-.064,2.293-2.128,3.079c-2.05.795-3.57.887-3.57.887z"/>
 <path d="m114.09,65.214s.959-3.329 2.419-3.841 3.28-.132 3.28-.132-.07,2.289-2.128,3.082-3.57.891-3.57.891z"/>
 <path d="m117.45,60.825s.959-3.327 2.42-3.831c1.463-.515 3.28-.136 3.28-.136s-.073,2.288-2.133,3.081-3.57.886-3.57.886z"/>
 <path d="m121.2,56.587s.958-3.322 2.418-3.833 3.286-.127 3.286-.127-.07,2.287-2.137,3.078c-2.06.792-3.57.882-3.57.882z"/>
 <path d="m125.21,52.01s1.21-3.241 2.709-3.641c1.502-.392 3.286.123 3.286.123s-.243,2.274-2.361,2.907c-2.13.635-3.64.611-3.64.611z"/>
 <path d="m129.37,47.12s2.098-2.749 3.647-2.693 3.105,1.068 3.105,1.068-.895,2.103-3.105,2.094c-2.21-.004-3.65-.469-3.65-.469z"/>
 <path d="m133.87,43.979s2.101-2.753 3.654-2.696c1.541.056 3.103,1.067 3.103,1.067s-.895,2.108-3.104,2.097c-2.2-.009-3.65-.468-3.65-.468z"/>
 <path d="m138.38,40.836s2.105-2.757 3.653-2.699 3.105,1.064 3.105,1.064-.895,2.115-3.104,2.098c-2.22-.002-3.66-.463-3.66-.463z"/>
 <path d="m143.91,38.026s2.179-2.688 3.729-2.585c1.539.103 3.07,1.16 3.07,1.16s-.958,2.079-3.169,2.004c-2.21-.075-3.63-.579-3.63-.579z"/>
 <path d="m309.39,93.791-.81-1.426-4.538-7.786c-7.673-13.106-13.255-21.359-24.197-32.889-9.528-10.036-16.888-12.829-22.258-14.869-.819-.314-1.593-.606-2.306-.901-5.333-2.21-14.145-1.119-14.517-1.073l.13,1.03c.088-.012 8.913-1.105 13.987.998 .729.304 1.511.603 2.341.913 5.276,2.003 12.504,4.747 21.868,14.611 10.876,11.456 16.655,19.579 24.285,32.604 2.242,3.823 3.663,6.104 5.273,8.955l.354.425c.449.729-.061.76.399.485 .46-.266.24-.66.01-1.077z"/>
 <path d="m266.3 41.594s15.306 5.484 26.973 15.84 56.435 55.005 65.062 68.183" fill="none" stroke="#000" stroke-width=".4503"/>
 <path d="m268.5 42.727s13.915 4.414 35.824 23.377c21.92 18.966 58.312 62.596 58.312 62.596" fill="none" stroke="#000" stroke-width=".4503"/>
 <path d="m278.25 46.947s22.024 16.034 32.569 26.429c10.538 10.404 36.363 37.102 38.928 39.251s13.064 11.649 13.064 11.649" fill="none" stroke="#000" stroke-width=".4503"/>
 <path d="m358.43 121.52s-21.068-20.346-26.434-25.091-22.241-21.43-35.067-32.64-27.275-17.856-27.275-17.856 20.851 32.074 31.233 49.909 28.929 54.282 34.599 61.045c5.67 6.754 9.053 12.708 9.053 12.708s-29.571-47.719-35.741-61.448c-6.165-13.724-17.414-30.625-28.143-45.744-10.724-15.129-20.235-22.191-21.85-23.253" fill="none" stroke="#000" stroke-width=".4503"/>
 <path d="m259.34 41.379s15.035 15.855 22.635 25.921c7.605 10.061 24.694 38.226 30.557 49.937 5.868 11.71 16.053 30.227 20.582 36.588 4.523 6.351 8.381 12.729 8.381 12.729" fill="none" stroke="#000" stroke-width=".4503"/>
 <path d="m264.69 45.673s6.111 6.524 12.017 13.494c5.9 6.982 15.761 22.809 21.255 30.931 5.501 8.123 26.676 48.51 28.346 50.927 1.672 2.41 12.731 20.224 13.961 22.877s2.186 3.973 2.186 3.973" fill="none" stroke="#000" stroke-width=".4503"/>
 <path d="m358.38 118.4s-21.07-20.346-26.437-25.099c-5.364-4.745-22.235-21.426-35.062-32.639-12.82-11.205-27.28-17.848-27.28-17.848s20.852 32.07 31.239 49.907c10.38 17.837 28.923 54.279 34.596 61.038s9.057 12.716 9.057 12.716-29.572-47.726-35.744-61.446c-6.161-13.727-17.414-30.633-28.142-45.753s-20.235-22.188-21.855-23.247" fill="none" stroke="#000" stroke-width=".4503"/>
 <path d="m257.12 41.03s15.033 15.856 22.636 25.922c7.604 10.062 24.703 38.227 30.562 49.934s16.045 30.23 20.574 36.585 8.384 12.736 8.384 12.736" fill="none" stroke="#000" stroke-width=".4503"/>
 <path d="m263.56 43.94s6.111 6.524 12.014 13.496c5.903 6.979 15.758 22.809 21.257 30.927s26.678 48.512 28.348 50.922c1.667 2.421 12.727 20.228 13.956 22.883s2.189 3.965 2.189 3.965" fill="none" stroke="#000" stroke-width=".4503"/>
 <path d="m354.11 160.88s-12.938-8.276-31.193-37.294c-18.253-29.022-29.161-43.01-31.533-46.069s-28.366-36.45-28.366-36.45" fill="none" stroke="#000" stroke-width=".4503"/>
 <path d="m361.28 156.64s-21.578-21.911-37.225-47.653-27.48-45.999-36.592-54.427-25.061-17.23-25.061-17.23" fill="none" stroke="#000" stroke-width=".4503"/>
 <path d="m359.88 155.34s-22.785-29.739-34.816-49.317-24.156-35.993-29.152-42.785c-4.999-6.784-17.086-16.448-17.086-16.448" fill="none" stroke="#000" stroke-width=".4503"/>
 <path d="m360.85 156.1s-21.573-21.907-37.226-47.65-27.479-46-36.591-54.433c-9.11-8.424-25.055-17.228-25.055-17.228" fill="none" stroke="#000" stroke-width=".4503"/>
 <path d="m359.46 154.8s-22.787-29.742-34.818-49.324c-12.026-19.572-24.157-35.993-29.153-42.778-4.99-6.789-17.086-16.452-17.086-16.452" fill="none" stroke="#000" stroke-width=".4503"/>
 <path d="m353.72 150.76s-13.509-22.893-25.451-40.225-24.569-35.08-24.569-35.08-5.21-6.551-13.902-15.674-18.274-17.978-18.274-17.978" fill="none" stroke="#000" stroke-width=".4503"/>
 <path d="m352.66 150.54s-13.509-22.898-25.448-40.228c-11.94-17.324-24.57-35.07-24.57-35.07s-5.218-6.555-13.907-15.676-18.272-17.982-18.272-17.982" fill="none" stroke="#000" stroke-width=".4503"/>
 <path d="m314.2,97.973s-.401-3.441-1.764-4.182c-1.354-.747-3.213-.673-3.213-.673s-.307,2.268 1.596,3.392 3.37,1.463 3.37,1.463z"/>
 <path d="m306.54,98.57s2.16-2.705 1.729-4.188c-.425-1.49-1.785-2.76-1.785-2.76s-1.826,1.378-1.285,3.52c.54,2.145 1.34,3.428 1.34,3.428z"/>
 <path d="m304.23,93.876s2.16-2.702 1.729-4.188-1.787-2.753-1.787-2.753-1.829,1.377-1.286,3.523c.55,2.135 1.35,3.418 1.35,3.418z"/>
 <path d="m301.14,89.351s2.156-2.702 1.729-4.189-1.786-2.755-1.786-2.755-1.832,1.377-1.287,3.517c.55,2.147 1.35,3.427 1.35,3.427z"/>
 <path d="m298.45,85.207s2.153-2.704 1.732-4.193c-.435-1.484-1.792-2.755-1.792-2.755s-1.831,1.381-1.287,3.522c.55,2.135 1.35,3.426 1.35,3.426z"/>
 <path d="m295.62,80.937s2.156-2.706 1.733-4.193c-.43-1.494-1.791-2.755-1.791-2.755s-1.83,1.375-1.281,3.521c.55,2.137 1.34,3.427 1.34,3.427z"/>
 <path d="m292.26,76.285s2.162-2.707 1.729-4.193-1.785-2.754-1.785-2.754-1.831,1.378-1.29,3.52c.55,2.139 1.35,3.427 1.35,3.427z"/>
 <path d="m288.77,72.04s2.157-2.707 1.732-4.197-1.789-2.751-1.789-2.751-1.826,1.376-1.284,3.522c.54,2.139 1.34,3.426 1.34,3.426z"/>
 <path d="m285.26,67.128s2.16-2.704 1.732-4.194-1.793-2.754-1.793-2.754-1.828,1.38-1.283,3.52c.54,2.144 1.34,3.428 1.34,3.428z"/>
 <path d="m281.88,62.478s2.159-2.702 1.731-4.188-1.786-2.758-1.786-2.758-1.829,1.379-1.284,3.518c.55,2.145 1.34,3.428 1.34,3.428z"/>
 <path d="m278.16,58.775s2.158-2.708 1.734-4.193c-.435-1.485-1.791-2.757-1.791-2.757s-1.832,1.383-1.285,3.522c.54,2.138 1.34,3.428 1.34,3.428z"/>
 <path d="m274.4,54.793s1.847-2.929 1.255-4.36-2.079-2.541-2.079-2.541-1.666,1.579-.887,3.638c.77,2.074 1.71,3.263 1.71,3.263z"/>
 <path d="m266.2,49.004s1.85-2.928 1.259-4.36c-.596-1.431-2.082-2.541-2.082-2.541s-1.662,1.576-.893,3.641c.78,2.068 1.71,3.26 1.71,3.26z"/>
 <path d="m262,46.775s1.847-2.929 1.254-4.356-2.082-2.542-2.082-2.542-1.669,1.573-.892,3.644c.79,2.063 1.72,3.254 1.72,3.254z"/>
 <path d="m270.44,51.893s1.844-2.922 1.257-4.359c-.593-1.432-2.086-2.538-2.086-2.538s-1.664,1.569-.886,3.636 1.72,3.261 1.72,3.261z"/>
 <path d="m258.45,44.255s1.848-2.922 1.258-4.355c-.584-1.431-2.079-2.541-2.079-2.541s-1.663,1.575-.889,3.642c.78,2.068 1.71,3.254 1.71,3.254z"/>
 <path d="m312.52,92.827s-.959-3.327-2.422-3.839-3.284-.133-3.284-.133 .071,2.291 2.133,3.082c2.07.792 3.57.89 3.57.89z"/>
 <path d="m309.95,88.278s-.961-3.327-2.424-3.835-3.275-.136-3.275-.136 .07,2.287 2.129,3.085c2.05.788 3.56.886 3.56.886z"/>
 <path d="m307.25,83.597s-.966-3.32-2.426-3.832-3.278-.131-3.278-.131 .063,2.295 2.125,3.086c2.07.787 3.59.877 3.59.877z"/>
 <path d="m304.55,78.924s-.966-3.327-2.428-3.835-3.281-.132-3.281-.132 .067,2.293 2.13,3.083 3.58.884 3.58.884z"/>
 <path d="m301.84,74.25s-.965-3.326-2.428-3.836-3.281-.132-3.281-.132 .072,2.287 2.133,3.08c2.07.793 3.58.888 3.58.888z"/>
 <path d="m298.62,69.593s-.965-3.321-2.424-3.835c-1.465-.506-3.281-.131-3.281-.131s.063,2.293 2.129,3.079c2.05.795 3.57.887 3.57.887z"/>
 <path d="m295.25,65.214s-.959-3.329-2.42-3.841-3.279-.132-3.279-.132 .069,2.289 2.128,3.082 3.57.891 3.57.891z"/>
 <path d="m291.89,60.825s-.959-3.327-2.421-3.831c-1.463-.515-3.281-.136-3.281-.136s.074,2.288 2.134,3.081 3.57.886 3.57.886z"/>
 <path d="m288.14,56.587s-.958-3.322-2.419-3.833-3.285-.127-3.285-.127 .068,2.287 2.136,3.078c2.05.792 3.56.882 3.56.882z"/>
 <path d="m284.13,52.01s-1.209-3.241-2.708-3.641c-1.502-.392-3.286.123-3.286.123s.243,2.274 2.361,2.907c2.13.635 3.64.611 3.64.611z"/>
 <path d="m279.97,47.12s-2.098-2.749-3.646-2.693-3.107,1.068-3.107,1.068 .896,2.103 3.107,2.094c2.21-.004 3.65-.469 3.65-.469z"/>
 <path d="m275.47,43.979s-2.102-2.753-3.654-2.696c-1.54.056-3.102,1.067-3.102,1.067s.894,2.108 3.104,2.097 3.65-.468 3.65-.468z"/>
 <path d="m270.96,40.836s-2.105-2.757-3.652-2.699-3.105,1.064-3.105,1.064 .894,2.115 3.104,2.098c2.22-.002 3.66-.463 3.66-.463z"/>
 <path d="m265.43,38.026s-2.18-2.688-3.73-2.585c-1.539.103-3.069,1.16-3.069,1.16s.958,2.079 3.169,2.004c2.21-.075 3.63-.579 3.63-.579z"/>
 <path d="m331,61.049-1.256-1.057-6.961-5.721c-11.753-9.618-19.855-15.416-34.126-22.418-12.424-6.097-20.294-6.156-26.039-6.202-.877-.008-1.706-.013-2.477-.042-5.769-.217-13.65,3.872-13.983,4.043l.48.921c.078-.043 7.972-4.136 13.463-3.929 .787.032 1.626.039 2.512.042 5.643.042 13.374.102 25.586,6.093 14.179,6.958 22.423,12.564 34.107,22.123 3.43,2.804 5.557,4.449 8.059,6.562l.48.275c.676.528.207.735.543.317 .33-.405-.01-.698-.38-1.007z"/>
 <path d="m272.45,27.095s16.258-.182 30.799,5.47 72.041,31.943 84.714,41.296" fill="none" stroke="#000" stroke-width=".4503"/>
 <path d="m274.91,27.392s14.581-.701 41.72,9.458c27.146,10.158 76.439,38.406 76.439,38.406" fill="none" stroke="#000" stroke-width=".4503"/>
 <path d="m285.52 27.955s26.225 7.373 39.726 13.453c13.5 6.09 46.997 22.138 50.149 23.262 3.145 1.128 16.302 6.38 16.302 6.38" fill="none" stroke="#000" stroke-width=".4503"/>
 <path d="m386.63 69.985s-26.829-11.749-33.509-14.332c-6.688-2.581-28.306-12.357-44.23-18.406-15.925-6.05-31.784-7.255-31.784-7.255s30.705 22.818 46.643 35.931c15.94 13.116 46.003 40.831 53.669 45.2 7.667 4.362 12.909 8.764 12.909 8.764s-44.321-34.452-54.883-45.178c-10.553-10.723-26.978-22.658-42.293-33.101-15.316-10.455-26.69-13.768-28.574-14.203" fill="none" stroke="#000" stroke-width=".4503"/>
 <path d="m265.85 29.313s19.611 9.636 30.238 16.43 36.446 27.25 46.018 36.191 25.562 22.758 32.021 27.144c6.449 4.382 12.284 9.019 12.284 9.019" fill="none" stroke="#000" stroke-width=".4503"/>
 <path d="m272.36 31.479s7.999 3.992 15.96 8.474c7.959 4.494 22.709 15.903 30.686 21.607s41.882 36.202 44.288 37.889c2.405 1.677 18.97 14.534 21.044 16.592 2.077 2.057 3.431 2.967 3.431 2.967" fill="none" stroke="#000" stroke-width=".4503"/>
 <path d="m385.5 67.086s-26.831-11.75-33.515-14.338c-6.68-2.583-28.3-12.355-44.227-18.408-15.92-6.048-31.784-7.249-31.784-7.249s30.703 22.816 46.646 35.927 45.996 40.831 53.665 45.196c7.67 4.369 12.913 8.771 12.913 8.771s-44.324-34.461-54.882-45.179c-10.552-10.727-26.98-22.663-42.297-33.109s-26.69-13.764-28.577-14.194" fill="none" stroke="#000" stroke-width=".4503"/>
 <path d="m263.65 29.758s19.61 9.637 30.238 16.431 36.455 27.249 46.021 36.188 25.56 22.761 32.015 27.147c6.457 4.383 12.29 9.022 12.29 9.022" fill="none" stroke="#000" stroke-width=".4503"/>
 <path d="m270.7 30.248s7.999 3.992 15.96 8.475c7.961 4.491 22.704 15.906 30.686 21.605s41.883 36.206 44.288 37.886c2.404 1.687 18.967 14.534 21.042 16.599s3.433 2.956 3.433 2.956" fill="none" stroke="#000" stroke-width=".4503"/>
 <path d="m396.27 108.4s-15.009-3.262-42.217-24.118-42.299-30.185-45.588-32.228-39.271-24.308-39.271-24.308" fill="none" stroke="#000" stroke-width=".4503"/>
 <path d="m401.52 101.93s-27.852-13.037-51.475-31.73-41.761-33.57-53.236-38.302c-11.475-4.733-29.489-7.438-29.489-7.438" fill="none" stroke="#000" stroke-width=".4503"/>
 <path d="m399.75 101.2s-31.706-19.958-49.795-34.13c-18.084-14.171-35.168-25.344-42.213-29.974-7.047-4.623-21.74-9.479-21.74-9.479" fill="none" stroke="#000" stroke-width=".4503"/>
 <path d="m400.93 101.57s-27.846-13.038-51.474-31.731-41.762-33.571-53.238-38.306c-11.472-4.73-29.482-7.438-29.482-7.438" fill="none" stroke="#000" stroke-width=".4503"/>
 <path d="m399.16 100.83s-31.709-19.958-49.799-34.131c-18.083-14.17-35.169-25.346-42.211-29.971s-21.742-9.48-21.742-9.48" fill="none" stroke="#000" stroke-width=".4503"/>
 <path d="m392.38 99.042s-20.628-16.764-37.852-28.86-35.236-24.346-35.236-24.346-7.164-4.329-18.486-9.859-23.385-10.5-23.385-10.5" fill="none" stroke="#000" stroke-width=".4503"/>
 <path d="m391.31 99.208s-20.629-16.772-37.849-28.867c-17.22-12.094-35.23-24.341-35.23-24.341s-7.171-4.332-18.489-9.861-23.388-10.502-23.388-10.502" fill="none" stroke="#000" stroke-width=".4503"/>
 <path d="m336.97,63.293s-1.574-3.086-3.107-3.306c-1.53-.231-3.246.485-3.246.485s.501,2.235 2.675,2.624c2.19.385 3.69.197 3.69.197z"/>
 <path d="m329.99,66.521s1.084-3.29.164-4.53c-.915-1.249-2.634-1.965-2.634-1.965s-1.231,1.926.021,3.746c1.26,1.821 2.45,2.749 2.45,2.749z"/>
 <path d="m326.2,62.919s1.087-3.284.164-4.528c-.918-1.246-2.634-1.958-2.634-1.958s-1.235,1.926.021,3.749c1.25,1.812 2.45,2.737 2.45,2.737z"/>
 <path d="m321.72,59.754s1.083-3.282.166-4.528-2.633-1.962-2.633-1.962-1.239,1.928.017,3.746c1.25,1.824 2.44,2.744 2.44,2.744z"/>
 <path d="m317.76,56.805s1.08-3.286.167-4.535c-.924-1.241-2.64-1.96-2.64-1.96s-1.235,1.933.019,3.749c1.25,1.812 2.45,2.746 2.45,2.746z"/>
 <path d="m313.63,53.784s1.079-3.286.167-4.535c-.922-1.251-2.638-1.96-2.638-1.96s-1.235,1.926.023,3.747c1.25,1.816 2.45,2.748 2.45,2.748z"/>
 <path d="m308.85,50.593s1.085-3.289.163-4.533-2.632-1.962-2.632-1.962-1.237,1.93.015,3.749c1.26,1.815 2.45,2.746 2.45,2.746z"/>
 <path d="m304.1,47.826s1.082-3.288.166-4.537c-.921-1.242-2.635-1.958-2.635-1.958s-1.232,1.926.02,3.749 2.44,2.746 2.44,2.746z"/>
 <path d="m299.1,44.444s1.086-3.287.167-4.535-2.639-1.96-2.639-1.96-1.234,1.929.021,3.747c1.26,1.82 2.45,2.748 2.45,2.748z"/>
 <path d="m294.33,41.254s1.086-3.284.165-4.528c-.92-1.249-2.634-1.965-2.634-1.965s-1.235,1.93.021,3.746c1.25,1.821 2.44,2.747 2.44,2.747z"/>
 <path d="m289.54,39.079s1.081-3.289.167-4.535c-.924-1.24-2.639-1.96-2.639-1.96s-1.236,1.934.021,3.75c1.26,1.813 2.45,2.745 2.45,2.745z"/>
 <path d="m284.64,36.654s.713-3.39-.339-4.525-2.835-1.66-2.835-1.66-1.012,2.059.435,3.718c1.44,1.676 2.74,2.467 2.74,2.467z"/>
 <path d="m274.94,34.076s.719-3.388-.334-4.527c-1.058-1.133-2.837-1.656-2.837-1.656s-1.011,2.054.431,3.724c1.45,1.666 2.74,2.459 2.74,2.459z"/>
 <path d="m270.23,33.447s.713-3.389-.339-4.521c-1.051-1.135-2.837-1.66-2.837-1.66s-1.016,2.055.433,3.727c1.46,1.662 2.75,2.454 2.75,2.454z"/>
 <path d="m279.91,35.311s.712-3.381-.338-4.523-2.839-1.653-2.839-1.653-1.014,2.048.435,3.716c1.46,1.666 2.75,2.46 2.75,2.46z"/>
 <path d="m266.01,32.323s.717-3.385-.336-4.522c-1.045-1.137-2.833-1.658-2.833-1.658s-1.012,2.053.435,3.722 2.73,2.458 2.73,2.458z"/>
 <path d="m333.61,59.054s-2.057-2.786-3.604-2.757-3.126,1.019-3.126,1.019 .863,2.123 3.071,2.148 3.66-.41 3.66-.41z"/>
 <path d="m329.61,55.683s-2.057-2.786-3.604-2.753-3.118,1.013-3.118,1.013 .861,2.12 3.067,2.15c2.21.022 3.65-.41 3.65-.41z"/>
 <path d="m325.45,52.232s-2.059-2.776-3.606-2.749c-1.544.031-3.119,1.018-3.119,1.018s.858,2.128 3.065,2.154c2.22.022 3.67-.423 3.67-.423z"/>
 <path d="m321.29,48.792s-2.062-2.781-3.61-2.751c-1.54.031-3.122,1.017-3.122,1.017s.862,2.126 3.07,2.15 3.66-.416 3.66-.416z"/>
 <path d="m317.13,45.352s-2.062-2.782-3.609-2.753-3.124,1.018-3.124,1.018 .865,2.12 3.073,2.146 3.66-.411 3.66-.411z"/>
 <path d="m312.49,42.107s-2.061-2.779-3.606-2.753c-1.55.034-3.124,1.018-3.124,1.018s.86,2.126 3.068,2.147c2.21.027 3.66-.412 3.66-.412z"/>
 <path d="m307.81,39.172s-2.056-2.787-3.604-2.76-3.12,1.017-3.12,1.017 .861,2.123 3.068,2.15c2.2.024 3.65-.407 3.65-.407z"/>
 <path d="m303.13,36.226s-2.055-2.787-3.602-2.751c-1.55.027-3.122,1.014-3.122,1.014s.864,2.121 3.072,2.146c2.21.026 3.65-.409 3.65-.409z"/>
 <path d="m298.14,33.556s-2.053-2.781-3.601-2.751-3.125,1.023-3.125,1.023 .86,2.118 3.073,2.142c2.21.028 3.65-.414 3.65-.414z"/>
 <path d="m292.79,30.659s-2.264-2.619-3.807-2.471-3.038,1.257-3.038,1.257 1.02,2.047 3.224,1.904c2.22-.142 3.63-.69 3.63-.69z"/>
 <path d="m287.19,27.521s-2.923-1.848-4.356-1.256-2.541,2.081-2.541,2.081 1.569,1.66 3.641.882c2.07-.77 3.26-1.707 3.26-1.707z"/>
 <path d="m281.88,26.141s-2.928-1.85-4.364-1.258c-1.425.589-2.537,2.081-2.537,2.081s1.572,1.665 3.64.886c2.06-.773 3.26-1.709 3.26-1.709z"/>
 <path d="m276.56,24.762s-2.93-1.853-4.361-1.26-2.542,2.078-2.542,2.078 1.574,1.671 3.641.887c2.07-.771 3.26-1.705 3.26-1.705z"/>
 <path d="m270.4,24.052s-2.977-1.761-4.394-1.127c-1.408.632-2.477,2.156-2.477,2.156s1.623,1.616 3.668.777 3.2-1.806 3.2-1.806z"/>
 <path d="m255.72 26.686a51.275 25.94 0 1 0 -102.55 0 51.275 25.94 0 1 0 102.55 0" fill="#fff" stroke="#000" stroke-linecap="round" stroke-linejoin="round" stroke-width="1.4925"/>
 <g stroke="#fff" stroke-linecap="round" stroke-linejoin="round" stroke-width=".6446">
  <path d="m194.48,17.75s-2.889-1.789.289-4.506 6.239-4.622 6.239-4.622l-.808-1.098s-6.354,3.929-6.472,4.101c-.115.176-4.16,2.428-4.16,2.428l1.618,3.524 3.29.173z"/>
  <path d="m181.65,10.576s-1.107-.409-2.564-.232c-1.456.175-2.391.232-2.797.584s-3.09,1.573-3.09,1.573-.699.583-.815.93-.118,1.282-.118,1.282l4.429.875 4.96-5.012z"/>
  <path d="m170.41,34.529s-1.809,1.225-2.044,2.449c-.232,1.224-.465,3.087-.114,3.495s1.98.876 3.147.118c1.166-.754.291-3.146.291-3.146l-1.29-2.916z"/>
  <path d="m182.18,39.366s-.815,2.449-2.333,2.682c-1.515.233-3.498.583-3.788.292s-.759-1.341-.584-1.69c.175-.348 2.332-1.75 2.857-2.156 .524-.409 1.572-1.632 1.572-1.632l2.27,2.504z"/>
  <path d="m172.62,31.326s-1.632,1.979-1.865,3.203c-.235,1.225-1.107,5.246 0,6.004s3.09.699 3.496.638 .468-.465 1.865-.871 3.788-3.44 3.788-3.44l-1.981-3.498-3.498-2.737-1.81.701z"/>
  <path d="m166.97,25.671s-1.75,1.69-2.389,2.974-.815,3.963-.584,4.193 1.807-.348 2.391-.99 1.574-4.663 1.574-4.663l-.99-1.514z"/>
  <path d="m167.02,27.709s-2.445,4.954-2.094,6.996 .348,2.388.348,2.388l2.038,1.166s1.398-.407 2.102-.64 4.079-6.411 4.079-6.411l.351-.991-6.83-2.508z"/>
  <path d="m168.42,20.542s-4.928,4.637-.464,8.567c2.449,2.156 5.478,1.398 5.478,1.398l.231-6.994-5.25-2.971z"/>
  <path d="m183.05,31.501s-.991,3.087-1.75,3.902-2.038,1.69-3.204,1.34-1.107-3.67-.759-5.242c.35-1.575 5.71,0 5.71,0z"/>
  <path d="m177.69,14.597s-5.654-.641-6.294-.467c-.642.177-3.266.936-3.613,3.44s1.283,3.964 1.283,3.964 1.688,1.747 2.678,1.805 2.506-.409 2.506-.409l3.43-8.333z"/>
  <path d="m183.93,29.519s-3.671,6.353-8.917,2.62c-5.242-3.729-3.611-6.643-1.688-10.139s3.323-2.972 3.323-2.972l7.982.874 .758,6.585-1.45,3.032z"/>
  <path d="m195.99,24.1s.348,3.727-.467,5.01-1.806,2.392-3.79,2.1 .119-8.51.119-8.51l4.14,1.4z"/>
  <path d="m193.08,24.446s.116,5.772-.877,7.169-4.251,1.984-4.251,1.984l-.464-6.879 5.59-2.274z"/>
  <path d="m189.29,28.466s.695,5.071.114,6.354-.931,2.157-2.681,3.031c-1.747.875-2.739,1.108-3.614,1.166s-1.398.292-1.923-.058c-.524-.35-1.574-1.752-1.34-3.207 .232-1.456 3.381-6.527 3.381-6.527l6.06-.759z"/>
  <path d="m192.73,23.456s-.351,2.799-2.041,4.896-3.029,2.623-4.194,2.913c-1.164.292-4.079.236-4.079.236s-1.048-5.655.582-8.918 2.447-4.605 2.447-4.605l4.605.35 2.67,5.128z"/>
  <path d="m184.68,10.227-3.845-.06-1.05.701-1.047.933s-.35-.061-.757.173-.992.348-1.399.991-.935,1.108-1.4,1.808-1.456,2.038-1.456,2.038h-.351s-1.051.876-1.051,1.108-.289,1.4.119,1.69 1.283,1.164 1.283,1.164 1.339,1.518 5.537,1.343c4.194-.176 6.351-2.507 6.351-2.507l1.517-1.633-2.45-7.749z"/>
  <path d="m192.67,16.112s4.955,0 5.244,3.846-1.749,5.48-1.749,5.48l-4.836.232s-2.389-2.272-2.564-4.197c-.17-1.922.3-4.892 3.91-5.361z"/>
  <path d="m190.51,14.13s.639-2.098.406-2.854-1.047-1.866-2.271-2.799c-1.226-.93-2.565-1.337-3.32-1.281-.76.06-1.691.117-1.691.117s-.467,2.331-.409,2.855c.057.526 3.612,3.264 3.612,3.264l3.67.698z"/>
  <path d="m190.92,13.49s-1.746-2.447-2.972-2.622c-1.224-.175-4.082,0-4.082,0l-1.631,2.04s.119,2.623.759,3.495 .465,2.159 1.631,2.216 2.215.583 2.449.642 .99.291.99.291h2.391s.639-.117.929-.523 .814-.934.814-1.516-.054-1.049-.229-1.809-.699-1.165-.699-1.165l-.35-1.049z"/>
  <path d="m191.27,16.403-.06-2.446"/>
  <path d="m196.61,11.265s-.48,1.835-.037,3.31c.438,1.474 1.154,2.751 1.154,2.751s-3.068-2.592-2.987-3.23 .079-1.792.079-1.792"/>
  <path d="m202.53,14.381s3.352.558 2.754-3.579-1.642-7.59-1.642-7.59l1.329-.293s2.188,7.146 2.159,7.351c-.023.208 1.531,4.569 1.531,4.569l-3.537,1.583-2.59-2.041z"/>
  <path d="m196,17.441s-1.102.423-2.083,1.518c-.979,1.09-1.645,1.748-1.719,2.277-.076.534-1.286,3.221-1.286,3.221s-.144.9.001,1.238 .759,1.044.759,1.044l3.906-2.263 .42-7.035z"/>
  <path d="m203.33,42.867s-.554,2.115.076,3.187 1.688,2.627 2.22,2.706 2.067-.65 2.44-1.987c.379-1.339-1.854-2.561-1.854-2.561l-2.89-1.345z"/>
  <path d="m215.37,38.745s1,2.377.011,3.552c-.984,1.174-2.243,2.744-2.656,2.717s-1.448-.507-1.55-.888 .6-2.851.726-3.503c.121-.653.106-2.264.106-2.264l3.36.386z"/>
  <path d="m202.88,38.998s.08,2.564.712,3.639c.632,1.076 2.626,4.676 3.956,4.515s2.784-1.509 3.05-1.825c.271-.312.044-.655.829-1.885s.581-5.082.581-5.082l-3.796-1.324-4.436.245-.89,1.717z"/>
  <path d="m194.9,38.473s-.201,2.423.163,3.81c.366,1.387 2,3.517 2.328,3.54s1.128-1.452 1.145-2.32c.015-.869-1.893-4.543-1.893-4.543l-1.75-.487z"/>
  <path d="m196.29,39.968s1.422,5.339 3.031,6.643 1.84,1.564 1.84,1.564l2.302-.468s.781-1.227 1.156-1.863-1.161-7.51-1.161-7.51l-.39-.976-6.78,2.61z"/>
  <path d="m192.62,33.656s-.651,6.734 5.296,6.751c3.265.007 5.043-2.562 5.043-2.562l-4.436-5.413-5.9,1.224z"/>
  <path d="m210.84,32.251s1.292,2.977 1.26,4.091-.42,2.615-1.525,3.121c-1.108.504-3.255-2.033-4.031-3.447s4.29-3.765 4.29-3.765z"/>
  <path d="m195.66,23.078s-4.671,3.243-5.038,3.798-1.84,2.855-.452,4.968c1.39,2.115 3.575,2.135 3.575,2.135s2.426.2 3.21-.409 1.614-1.958 1.614-1.958l-2.9-8.534z"/>
  <path d="m210.19,30.186s1.425,7.196-4.977,7.85c-6.405.653-7.098-2.614-7.956-6.508-.858-3.899.538-4.427.538-4.427l6.582-4.606 4.911,4.452 .91,3.239z"/>
  <path d="m215.69,18.159s2.72,2.573 2.951,4.073 .218,2.989-1.467,4.075c-1.68,1.088-5.519-6.473-5.519-6.473l4.04-1.675z"/>
  <path d="m213.73,20.341s3.889,4.262 4.066,5.966c.177,1.706-1.893,4.294-1.893,4.294l-4.886-4.863 2.71-5.397z"/>
  <path d="m213.53,25.861s3.867,3.352 4.274,4.701 .72,2.237-.017,4.044-1.333,2.641-1.948,3.262c-.62.618-.862,1.138-1.487,1.22-.624.083-2.338-.276-3.121-1.522-.787-1.251-1.759-7.139-1.759-7.139l4.07-4.566z"/>
  <path d="m212.81,19.826s1.583,2.335 1.697,5.026-.553,3.97-1.239,4.956c-.683.988-2.909,2.865-2.909,2.865s-4.518-3.559-5.441-7.087-1.195-5.075-1.195-5.075l3.692-2.775 5.4,2.09z"/>
  <path d="m198.04,15.179-2.931,2.492-.328,1.218-.172,1.392s-.303.187-.456.633c-.152.442-.515.917-.398,1.668s.028,1.444.138,2.277 .249,2.497.249,2.497l-.262.229s-.213,1.35-.057,1.526c.15.175.703,1.242 1.201,1.193s1.731.032 1.731.032 2.008.254 5.048-2.644 3.124-6.071 3.124-6.071l.064-2.225-6.94-4.217z"/>
  <path d="m207.93,14.34s3.726-3.264 6.479-.562c2.759,2.701 2.298,5.272 2.298,5.272l-3.483,3.366s-3.297-.136-4.694-1.468c-1.42-1.329-3.02-3.872-.61-6.608z"/>
  <path d="m205,14.274s-.901-2.001-1.578-2.417c-.673-.417-2.018-.711-3.553-.604s-2.811.679-3.343,1.225c-.531.543-1.194,1.202-1.194,1.202s1.187,2.06 1.575,2.415c.391.358 4.87.075 4.87.075l3.21-1.896z"/>
  <path d="m204.88,13.522s-2.928-.688-3.965-.012c-1.034.675-3.066,2.69-3.066,2.69l.118,2.61s1.817,1.896 2.874,2.128c1.059.236 1.772,1.315 2.687.593 .916-.727 2.048-1.024 2.263-1.134 .216-.108.938-.436.938-.436l1.798-1.575s.405-.508.356-1.006-.004-1.241-.387-1.679-.735-.75-1.368-1.201c-.628-.458-1.293-.417-1.293-.417l-.96-.561z"/>
  <path d="m207.07 15.484-1.66-1.802"/>
  <path d="m205.2,8.1s-.848,1.694-2.15,2.515-2.681,1.305-2.681,1.305 4.015.075 4.375-.46c.359-.53 1.123-1.4 1.123-1.4"/>
  <path d="m215.31,17.75s2.889-1.789-.29-4.506-6.24-4.622-6.24-4.622l.809-1.098s6.356,3.929 6.474,4.101c.113.176 4.156,2.428 4.156,2.428l-1.615,3.524-3.29.173z"/>
  <path d="m228.14,10.576s1.106-.409 2.564-.232c1.455.175 2.389.232 2.796.584s3.091,1.573 3.091,1.573 .699.583.815.93 .117,1.282.117,1.282l-4.431.875-4.95-5.012z"/>
  <path d="m239.38,34.529s1.812,1.225 2.044,2.449 .466,3.087.115,3.495-1.982.876-3.146.118c-1.165-.754-.293-3.146-.293-3.146l1.28-2.916z"/>
  <path d="m227.61,39.366s.814,2.449 2.333,2.682c1.515.233 3.497.583 3.788.292s.756-1.341.583-1.69-2.332-1.75-2.856-2.156-1.571-1.632-1.571-1.632l-2.27,2.504z"/>
  <path d="m237.17,31.326s1.632,1.979 1.868,3.203c.229,1.225 1.104,5.246 0,6.004-1.11.756-3.094.699-3.498.638-.409-.056-.47-.465-1.866-.871s-3.786-3.44-3.786-3.44l1.98-3.498 3.496-2.737 1.81.701z"/>
  <path d="m242.82,25.671s1.75,1.69 2.389,2.974 .814,3.963.586,4.193c-.238.235-1.808-.348-2.394-.99-.581-.639-1.573-4.663-1.573-4.663l.98-1.514z"/>
  <path d="m242.77,27.709s2.445,4.954 2.094,6.996-.348,2.388-.348,2.388l-2.037,1.166s-1.402-.407-2.102-.64-4.079-6.411-4.079-6.411l-.352-.991 6.83-2.508z"/>
  <path d="m241.37,20.542s4.929,4.637.465,8.567c-2.449,2.156-5.477,1.398-5.477,1.398l-.232-6.994 5.24-2.971z"/>
  <path d="m226.74,31.501s.991,3.087 1.748,3.902 2.038,1.69 3.205,1.34 1.106-3.67.759-5.242c-.36-1.575-5.72,0-5.72,0z"/>
  <path d="m232.1,14.597s5.652-.641 6.297-.467c.642.177 3.263.936 3.61,3.44s-1.283,3.964-1.283,3.964-1.686,1.747-2.678,1.805-2.506-.409-2.506-.409l-3.44-8.333z"/>
  <path d="m225.86,29.519s3.67,6.353 8.916,2.62c5.243-3.729 3.615-6.643 1.689-10.139-1.921-3.498-3.323-2.972-3.323-2.972l-7.981.874-.76,6.585 1.45,3.032z"/>
  <path d="m213.8,24.1s-.348,3.727.466,5.01c.816,1.281 1.807,2.392 3.79,2.1s-.12-8.51-.12-8.51l-4.14,1.4z"/>
  <path d="m216.71,24.446s-.116,5.772.873,7.169 4.255,1.984 4.255,1.984l.465-6.879-5.59-2.274z"/>
  <path d="m220.5,28.466s-.697,5.071-.115,6.354c.586,1.281.933,2.157 2.683,3.031 1.747.875 2.737,1.108 3.612,1.166s1.398.292 1.925-.058c.524-.35 1.573-1.752 1.34-3.207-.233-1.456-3.381-6.527-3.381-6.527l-6.06-.759z"/>
  <path d="m217.06,23.456s.352,2.799 2.041,4.896 3.031,2.623 4.195,2.913 4.08.236 4.08.236 1.047-5.655-.582-8.918-2.449-4.605-2.449-4.605l-4.604.35-2.69,5.128z"/>
  <path d="m225.11,10.227 3.845-.06 1.047.701 1.054.933s.349-.061.754.173 .992.348 1.4.991 .934,1.108 1.398,1.808 1.457,2.038 1.457,2.038h.351s1.048.876 1.048,1.108 .291,1.4-.114,1.69c-.409.292-1.284,1.164-1.284,1.164s-1.34,1.518-5.537,1.343c-4.193-.176-6.351-2.507-6.351-2.507l-1.517-1.633 2.44-7.749z"/>
  <path d="m217.12,16.112s-4.953,0-5.242,3.846 1.746,5.48 1.746,5.48l4.837.232s2.391-2.272 2.566-4.197c.16-1.922-.31-4.892-3.92-5.361z"/>
  <path d="m219.28,14.13s-.64-2.098-.408-2.854 1.049-1.866 2.273-2.799c1.226-.93 2.562-1.337 3.319-1.281s1.691.117 1.691.117 .467,2.331.409,2.855c-.057.526-3.613,3.264-3.613,3.264l-3.67.698z"/>
  <path d="m218.87,13.49s1.748-2.447 2.973-2.622 4.082,0 4.082,0l1.63,2.04s-.116,2.623-.758,3.495-.465,2.159-1.631,2.216-2.216.583-2.449.642-.99.291-.99.291h-2.391s-.64-.117-.93-.523-.818-.934-.818-1.516 .058-1.049.234-1.809c.175-.756.699-1.165.699-1.165l.36-1.049z"/>
  <path d="m218.52,16.403 .06-2.446"/>
  <path d="m213.18,11.265s.479,1.835.038,3.31c-.438,1.474-1.154,2.751-1.154,2.751s3.068-2.592 2.988-3.23-.082-1.792-.082-1.792"/>
 </g>
</svg>
